<svg xmlns="http://www.w3.org/2000/svg" height="1024" preserveAspectRatio="none" style="display: block;" version="1.1" viewBox="0 0 2048 2048" width="1024">
<path d="M 0 0 L 2048 0 L 2048 2048 L 0 2048 L 0 0 z" fill="rgb(255,255,255)" transform="translate(0,0)"></path>
<path d="M 999.676 301.056 C 1284.96 287.275 1527.27 507.667 1540.52 792.981 C 1553.76 1078.29 1332.91 1320.19 1047.57 1332.89 C 762.994 1345.57 521.885 1125.43 508.677 840.878 C 495.468 556.323 715.146 314.801 999.676 301.056 z" fill="rgb(150,149,162)" transform="translate(0,0)"></path>
<path d="M 1023.4 379.739 C 1025.48 383.493 1031.12 414.379 1032.69 421.18 L 1069 584.506 C 1074.94 611.659 1080.38 640.825 1087.5 667.512 C 1117.58 652.128 1155.81 626.989 1184.6 609.084 C 1236.81 576.678 1288.73 543.802 1340.36 510.461 C 1328.88 527.428 1318.67 545.939 1307.89 563.407 L 1262.61 635.621 C 1249.69 656.452 1236.93 677.343 1224.07 698.202 C 1211.61 718.422 1197.56 738.895 1185.96 759.524 C 1212.18 767.492 1245.97 774.473 1273.06 780.616 L 1378.79 804.566 C 1408.97 811.125 1437.59 816.644 1467.71 823.956 C 1441.22 831.339 1405.22 837.551 1377.45 843.817 L 1183.68 887.82 C 1187.45 897.037 1197.15 911.21 1202.8 920.026 C 1212.55 935.164 1222.2 950.364 1231.76 965.625 C 1267.88 1023.57 1301.94 1081.22 1339.62 1138.32 C 1275.31 1096.74 1210.59 1055.8 1145.46 1015.52 C 1131.7 1006.97 1099.61 983.653 1088.12 978.807 C 1066.04 1073.21 1044.69 1167.78 1024.06 1262.52 L 1021.65 1249.03 C 1014.02 1204.32 1001.3 1152.92 991.6 1108.48 L 973.149 1025.73 C 969.639 1009.84 966.631 993.041 962.434 977.458 C 952.054 982.753 938.358 991.811 928.241 998.204 C 904.847 1013.16 881.54 1028.24 858.322 1043.47 C 808.544 1075.55 755.104 1107.83 706.437 1140.6 C 717.394 1122.66 729.617 1104.79 740.923 1087 L 816.282 966.527 C 832.732 940.455 849.23 916.213 865.512 889.561 C 833.056 878.755 779.793 869.067 745.204 861.067 C 689.762 848.243 633.381 835.293 577.695 823.911 C 616.812 817.886 658.449 807.298 697.3 799.253 L 797.563 777.499 C 819.078 772.76 845.833 767.357 866.741 761.321 C 850.835 735.488 834.831 709.371 818.334 683.913 C 780.301 625.221 744.647 565.339 706.05 507 C 743.49 533.272 791.077 560.942 830.428 585.574 C 871.977 611.582 919.206 643.146 961.411 666.538 C 966.876 646.862 972.13 618.184 976.909 597.293 C 993.159 524.938 1008.66 452.416 1023.4 379.739 z" fill="rgb(255,255,255)" transform="translate(0,0)"></path>
<path d="M 1154.98 788 C 1164.03 788.49 1192.08 795.712 1202.15 797.711 C 1243.41 805.894 1285 816.38 1326.38 823.746 C 1298.8 831.362 1263.97 837.979 1235.34 844.538 C 1217.46 847.781 1180.1 856.831 1163.75 858.325 C 1150.14 859.568 1094.98 838.174 1079.89 832.04 C 1081.2 825.545 1081.74 823.018 1081.29 816.268 C 1098.4 807.865 1135.99 794.908 1154.98 788 z" fill="rgb(150,149,162)" transform="translate(0,0)"></path>
<path d="M 975.657 861.992 C 981.424 866.163 982.721 867.544 987.486 872.674 C 980.298 889.873 961.493 925.791 952.046 942.564 C 949.728 946.681 922.977 963.708 916.015 968.456 L 814.511 1036.36 L 805.827 1041.12 C 819.631 1020.92 833.083 1000.49 846.176 979.833 C 860.366 957.673 887.414 912.177 904.926 893.67 C 909.015 889.349 965.681 866.279 975.657 861.992 z" fill="rgb(150,149,162)" transform="translate(0,0)"></path>
<path d="M 1240.83 607.987 L 1241.27 608.427 C 1241.09 610.968 1162.26 734.577 1152.27 749.949 C 1128.01 759.27 1099.69 774.142 1074.31 781.503 C 1072.14 782.131 1071.56 780.982 1070.26 779.766 C 1068.18 777.07 1065.8 774.573 1063.5 772.043 C 1066.59 764.779 1094.77 705.487 1098.4 702.752 C 1123.4 683.964 1164.54 658.419 1191.76 640.344 C 1206.29 630.693 1226.94 615.624 1240.83 607.987 z" fill="rgb(150,149,162)" transform="translate(0,0)"></path>
<path d="M 1068.78 858.615 C 1077.1 861.008 1088.01 866.47 1096.05 870.011 C 1113.88 877.87 1131.62 887.02 1149.81 894.006 C 1157.38 907.553 1168.75 924.273 1177.2 937.787 L 1221.67 1009.56 C 1224.33 1013.77 1239.92 1036.11 1240.61 1038.28 L 1238.56 1037.76 C 1224.92 1029.33 1098.34 944.074 1095.35 939.829 C 1089.3 931.237 1085.67 920.035 1081.48 910.416 C 1075.12 895.788 1068.67 881.253 1061.54 866.977 C 1064.02 864.395 1066.46 861.367 1068.78 858.615 z" fill="rgb(150,149,162)" transform="translate(0,0)"></path>
<path d="M 811.961 608.338 C 819.15 611.584 835.9 624.55 843.941 629.566 C 880.542 652.393 916.806 679.88 953.752 701.688 C 962.74 721.843 974.903 749.681 983.987 770.574 C 984.806 772.458 982.946 773.729 981.315 775.653 L 974.339 781.835 C 956.475 774.153 915.979 758.973 901.821 748.388 C 895.763 743.859 820.726 623.408 811.961 608.338 z" fill="rgb(150,149,162)" transform="translate(0,0)"></path>
<path d="M 1030.85 879.436 C 1032.5 879.245 1033.8 879.361 1035.47 879.401 C 1036.51 880.193 1038.49 881.973 1038.92 883.429 C 1044.82 903.522 1055.48 928.453 1058.74 948.531 C 1059.42 952.69 1054.53 975.138 1053.63 979.536 C 1049.09 1001.71 1044.37 1023.85 1039.49 1045.95 C 1034.78 1068.23 1031.25 1094.31 1024.51 1115.57 L 1023.71 1113.77 L 990.906 949.713 C 999.121 926.048 1010.51 903.721 1018.32 880.055 L 1030.85 879.436 z" fill="rgb(150,149,162)" transform="translate(0,0)"></path>
<path d="M 886.601 789.161 C 898.139 787.645 945.72 807.082 960.837 812.01 C 960.697 818.227 960.693 824.447 960.825 830.665 C 945.114 840.015 912.001 851.381 894.372 857.387 C 887.757 859.64 835.346 846.837 825.177 844.714 C 798.807 838.102 757.424 830.471 733.481 822.647 C 743.405 819.79 763.739 816.232 774.786 813.801 C 812.127 805.906 849.4 797.692 886.601 789.161 z" fill="rgb(150,149,162)" transform="translate(0,0)"></path>
<path d="M 1023.37 532.593 C 1026.94 536.073 1055.67 678.846 1058.87 695.783 C 1050.38 713.254 1043.87 735.318 1035.81 753.761 C 1033.01 755.643 1032.6 754.941 1028.48 754.987 C 1023.28 754.792 1017.81 754.767 1012.59 754.666 C 1005.83 739.654 995.244 710.67 991.676 694.968 C 990.713 690.733 997.905 658.669 999.101 652.625 L 1023.37 532.593 z" fill="rgb(150,149,162)" transform="translate(0,0)"></path>
<path d="M 1015.5 777.466 C 1030.37 774.21 1045.85 779.206 1056.01 790.544 C 1066.17 801.882 1069.44 817.81 1064.58 832.237 C 1059.72 846.664 1047.47 857.361 1032.52 860.237 C 1009.81 864.605 987.809 849.906 983.152 827.253 C 978.494 804.601 992.911 782.412 1015.5 777.466 z" fill="rgb(150,149,162)" transform="translate(0,0)"></path>
<path d="M 1316.8 1266.92 C 1320.78 1270.79 1315.13 1809.73 1318.78 1870 C 1302.71 1860.72 1285.74 1847 1270.52 1836.06 C 1238.59 1813.1 1207.58 1789.06 1175.47 1766.33 C 1142.6 1744.26 1104.36 1710.27 1071.38 1689.88 C 1070.63 1656.04 1071.37 1618.5 1071.29 1584.33 L 1071.18 1358.34 C 1142.2 1350.56 1211.01 1331.65 1273.58 1296.11 C 1287.06 1288.45 1303.91 1276.06 1316.8 1266.92 z" fill="rgb(150,149,162)" transform="translate(0,0)"></path>
<path d="M 731.1 1263.67 C 798.936 1319.02 889.176 1350.98 975.929 1358.42 L 976.293 1531.7 C 975.829 1584.35 975.922 1637 976.574 1689.64 C 943.543 1715.02 907.282 1740.99 873.454 1765.6 L 796.968 1821.57 C 775.031 1837.77 752.506 1855.05 730.169 1870.55 C 731.78 1816.9 730.882 1759.88 730.935 1705.92 L 730.9 1413.55 C 730.849 1365.58 729.476 1311.22 731.1 1263.67 z" fill="rgb(150,149,162)" transform="translate(0,0)"></path>
<metadata><recraft-signature>{"signed_by": "recraft", "signature_b64": "nuVBe8ZGSGX9Ed9ILzXtSUHJlKo0RcF1OZOXtkUsWAb4trT7QojH4S+0ly7J7SCWoOKj/M8M1NJfvSLnFQZvCw==", "signing_algo": "Ed25519", "generation_timestamp": 1784328625, "identifier": "be0509be-0943-4a8d-9333-b3cb99b31317"}</recraft-signature></metadata></svg>