<svg xmlns="http://www.w3.org/2000/svg" height="1024" preserveAspectRatio="none" style="display: block;" version="1.1" viewBox="0 0 2048 2048" width="1024">
<path d="M 0 0 L 2048 0 L 2048 2048 L 0 2048 L 0 0 z" fill="rgb(255,255,255)" transform="translate(0,0)"></path>
<path d="M 1009.01 322.433 C 1026.25 321.758 1043.52 322.21 1060.7 323.785 C 1170.22 333.816 1268.01 390.99 1337.74 475.011 C 1508.02 680.161 1478.87 1001.92 1272.76 1172.46 C 1274.98 1193.3 1279.27 1213.38 1283.88 1233.8 C 1302.28 1316.46 1334.94 1395.29 1380.37 1466.76 C 1392.35 1485.98 1407.35 1508.75 1422.2 1525.93 C 1412.11 1533.79 1398.96 1542.61 1388.39 1550.23 C 1359.35 1571.15 1330.18 1591.9 1300.9 1612.48 C 1248.32 1649.97 1195.14 1689.59 1142.16 1726.22 C 1133.79 1712.5 1119.66 1694.97 1109.7 1679.26 C 1077.18 1628.88 1050.79 1574.8 1031.08 1518.17 L 1026.8 1506.39 C 1019.12 1520.5 1009.52 1547.62 1001.72 1563.9 C 975.801 1618.02 942.885 1679.76 904.184 1725.9 C 897.898 1720.6 882.867 1710.61 875.693 1705.49 L 812.188 1660.4 L 625.616 1525.8 C 686.977 1447.41 731.168 1356.99 755.318 1260.41 C 762.998 1230.28 767.761 1200.83 774.048 1170.5 C 771.983 1168.9 769.978 1167.23 768.035 1165.48 C 667.846 1075.24 607.926 948.665 601.634 813.973 C 589.868 572.47 755.656 334.197 1009.01 322.433 z" fill="rgb(8,6,4)" transform="translate(0,0)"></path>
<path d="M 1003.89 326.422 C 1105.28 321.445 1204.67 355.83 1281.3 422.397 C 1377.05 504.665 1434.83 626.452 1444.23 751.76 C 1454.06 883.761 1411.5 1014.32 1325.77 1115.17 C 1252.45 1200.33 1158.81 1253.82 1045.75 1262.28 C 1044.37 1262.41 1042.99 1262.51 1041.61 1262.57 C 946.797 1268.11 843.708 1228.1 773.256 1165.39 C 673.56 1077.26 613.204 952.945 605.607 820.093 C 598.286 687.734 638.885 560.374 727.929 461.112 C 798.282 381.221 897.628 332.733 1003.89 326.422 z" fill="rgb(254,202,117)" transform="translate(0,0)"></path>
<path d="M 741.542 1066.08 C 729.704 1051.71 719.93 1037.08 710.564 1021.07 C 605.461 841.333 640.084 596.664 803.516 463.012 C 875.483 403.897 968.091 375.994 1060.74 385.511 C 1160.67 395.906 1242.78 447.181 1305.5 524.659 C 1450.53 703.786 1424.78 982.48 1246.51 1129.64 C 1173.45 1189.94 1080.18 1217.89 986.072 1207.39 C 916.672 1200.42 832.775 1163.15 783.981 1112.46 C 783.267 1112.02 783.421 1112.12 782.804 1111.48 C 770.197 1100.21 757.989 1086.47 747.439 1073.29 C 746.893 1072.77 746.877 1072.78 746.508 1072.12 L 742.482 1067.27 C 741.964 1066.75 741.919 1066.71 741.542 1066.08 z" fill="rgb(8,6,4)" transform="translate(0,0)"></path>
<path d="M 1006.17 386.426 C 1006.94 386.352 1007.72 386.278 1008.5 386.204 C 1101.63 383.182 1183.51 412.995 1253.05 473.353 C 1336.12 546.387 1387.11 649.174 1395 759.497 C 1403.29 880.695 1371.21 990.957 1290.36 1083.14 C 1224.64 1158.06 1142.78 1199.87 1043.25 1206.51 C 1042.89 1206.53 1042.53 1206.56 1042.18 1206.59 C 950.705 1211 861.187 1179.15 793.071 1117.94 C 710.124 1043.21 660.31 938.561 654.615 827.063 C 648.198 701.345 680.938 596.968 765.989 502.012 C 825.936 435.084 916.098 390.97 1006.17 386.426 z" fill="rgb(255,255,255)" transform="translate(0,0)"></path>
<path d="M 994.453 417.671 L 1053.72 417.831 L 1053.77 437.068 L 1067.7 437.002 L 1067.87 451.42 C 1080.74 452.645 1094.06 453.502 1106.98 454.487 L 1108.47 442.316 C 1114.46 443.011 1121.81 444.468 1127.87 445.51 L 1125.57 464.781 L 1114.16 464.987 C 1113.56 471.481 1113.05 493.019 1109.54 496.31 C 1107.36 496.233 1105.18 496.121 1103.01 495.972 C 1098.15 500.744 1099.6 531.593 1094.83 538.423 L 1089.65 538.122 C 1085.23 542.633 1083.45 596.297 1079.2 602.256 C 1076.8 602.534 1076.23 602.631 1073.92 603.293 C 1069.54 609.887 1067.81 661.032 1062.68 672.687 C 1059.67 674.756 1055.76 674.011 1051.93 673.831 C 1049.8 696.715 1048.1 719.636 1046.82 742.583 C 1051.09 737.079 1078.84 694.728 1078.7 690.613 C 1075.77 688.578 1074 687.38 1074.38 686.686 C 1080.44 675.579 1120.88 621.483 1121.58 613.911 C 1119.89 612.212 1116.96 609.302 1118.46 606.767 C 1124.24 597 1152.47 545.174 1157.68 542.048 C 1160.3 543.453 1159.25 543.315 1161.97 543.392 C 1166.57 538.3 1176.43 522.553 1176.73 515.452 C 1172.26 506.023 1178.54 500.654 1183.93 492.577 C 1181.6 490.701 1180.47 490.177 1179.55 487.331 C 1180.02 482.317 1183.94 477.729 1186.85 472.889 C 1193.34 477.58 1198.46 481.306 1205.35 485.313 C 1203.69 489.247 1201.49 493.427 1199.58 497.289 C 1207.95 504.716 1223.71 515.169 1233.43 522.194 L 1243.25 508.56 C 1247.83 511.714 1252.32 515.169 1256.78 518.505 C 1261.86 512.427 1267.81 506.539 1273.36 500.836 C 1284.33 513.061 1295.12 525.448 1305.72 537.992 C 1299.74 542.843 1294.14 547.907 1288.4 553.032 C 1291 557.186 1293.82 560.388 1296.92 564.152 C 1293.02 567.429 1289.16 569.642 1284.84 572.316 C 1289.9 583.417 1302.86 605.32 1309.06 616.744 C 1311.93 614.729 1314.78 612.689 1317.61 610.626 C 1320.65 616.539 1323.69 622.028 1325.81 628.339 C 1318.23 631.698 1313.57 635.234 1306.98 640.106 C 1304.44 635.985 1301.86 631.135 1299.47 626.87 C 1293.2 630.314 1269.9 645.892 1267.49 646.811 L 1265.02 644.248 C 1259.97 644.461 1231.26 664.331 1224.72 668.64 C 1226.54 671.255 1228.26 672.973 1228.26 676.044 C 1224.14 679.588 1184.44 705.979 1180.63 706.606 C 1178.46 703.946 1179.35 704.492 1176.58 702.848 C 1163.16 710.882 1147.65 724.209 1134.67 733.528 C 1129.54 737.208 1121.24 744.591 1115.87 746.783 C 1111.38 746.515 1112.96 746.797 1108.84 743.925 C 1096.96 751.978 1081.39 766.473 1069.07 776.131 C 1087.35 775.111 1105.62 773.876 1123.87 772.424 L 1123.14 758.282 C 1134.54 756.78 1199.44 752.968 1203.86 750.233 C 1203.94 747.869 1204.07 746.508 1204.38 744.16 C 1208.74 739.834 1260.72 739.549 1267.56 735.607 C 1267.63 732.953 1267.67 732.328 1268.16 729.728 C 1275.42 724.801 1302.51 728.688 1306 723.527 C 1305.78 720.667 1305.43 719.37 1306.52 716.695 C 1310.27 714.735 1326.68 713.584 1331.55 713.091 L 1331.2 700.337 C 1337.84 698.816 1346.37 697.778 1353.27 696.759 C 1354.05 702.765 1354.72 708.884 1355.42 714.909 L 1343.1 715.913 C 1345.41 731.213 1346.6 750.439 1348.21 766.282 L 1363.74 766.316 L 1363.7 780.87 L 1387.22 780.929 L 1387.05 820.785 L 1363.91 820.958 C 1363.64 825.928 1363.74 831.143 1363.74 836.138 L 1347.94 835.828 C 1346.03 852.726 1344.24 869.639 1342.58 886.564 C 1346.36 886.894 1349.97 886.695 1352.77 889.06 C 1354.89 893.073 1353.32 900.263 1352.81 905.336 C 1345.69 904.405 1338.36 903.648 1331.21 902.824 L 1331.92 890.193 C 1324.63 889.837 1309.9 890.573 1305.14 884.59 C 1306.75 870.786 1275.93 881.441 1268.79 874.359 C 1268.95 872.041 1269.4 868.083 1268.17 867.775 C 1257.62 865.125 1210.48 863.459 1203.69 860.492 C 1203.67 858.792 1203.69 857.093 1203.73 855.394 C 1199.75 851.832 1133.11 846.571 1123.62 845.651 L 1123.99 829.253 L 1070.03 826.031 C 1077.06 831.583 1104.37 855.174 1110.22 857.435 C 1110.91 855.653 1111.2 855.017 1112.03 853.344 C 1117.39 852.796 1165.93 889.723 1175.79 895.359 C 1181.3 893.547 1175.57 893.761 1180.85 890.478 C 1187.95 894.758 1228.6 920.323 1230.04 925.135 C 1228.33 927.003 1228.17 926.946 1227.26 929.259 C 1229.26 932.8 1258.85 951.362 1264.4 954.524 C 1267.6 956.343 1265.63 953.383 1269.37 952.021 C 1274.57 954.746 1292.74 967.774 1299.67 972.161 C 1302.34 968.133 1304.11 963.327 1306.01 958.835 C 1312.37 962.721 1319.78 966.436 1326.44 969.945 C 1322.11 976.223 1320.3 979.635 1317.6 986.65 L 1306.43 982.282 C 1299.23 996.957 1289.99 1012.04 1281.88 1026.46 C 1285.72 1028.54 1289.41 1030.9 1293.12 1033.2 L 1284.05 1042.82 C 1289.62 1048.3 1296.32 1054.14 1302.15 1059.46 C 1292.53 1072.04 1282.45 1082.87 1271.74 1094.51 C 1259.46 1078.98 1258.89 1073.24 1241.89 1086.67 L 1231.52 1073.54 C 1220.16 1081.15 1208.45 1089.65 1197.2 1097.53 C 1199.67 1101.17 1202.67 1105.05 1205.31 1108.62 C 1198.47 1113.35 1191.51 1117.88 1184.43 1122.23 L 1175.52 1108.01 C 1177.67 1106.51 1181.27 1104.48 1183.63 1103.07 C 1173.66 1089.1 1173.93 1090.69 1173.63 1074.78 C 1173.58 1072.09 1161.55 1052.41 1158.47 1050.82 L 1155.1 1052.68 C 1152.88 1051.53 1120.28 993.484 1117.11 986.751 C 1117.78 983.933 1117.96 984.656 1121.3 982.547 C 1121.72 976.049 1079.71 921.035 1073.44 910.521 C 1073.39 903.177 1074.85 910.427 1076.49 904.678 C 1070.12 892.298 1054.35 870.403 1046.17 858.529 L 1052.26 928.927 L 1063.06 929.047 C 1064.28 938.024 1070.53 998.328 1073.28 1001.41 C 1073.86 1001.38 1076.55 1001.2 1077.06 1001.31 C 1082.9 1002.58 1081.22 1057.07 1088.2 1064.71 C 1089.57 1064.75 1093.38 1064.74 1093.69 1065.54 C 1097.3 1074.91 1097.16 1096.16 1099.42 1105.99 C 1101.25 1107.73 1103.97 1107.08 1107.39 1107.23 C 1112.4 1113.13 1108.44 1131.16 1111.87 1138.37 C 1113.87 1142.59 1117.1 1139.12 1120.86 1140.55 C 1123.77 1145.76 1123.68 1152.6 1124.29 1158.82 L 1104.91 1161.66 L 1103.95 1149.14 C 1091.03 1150.11 1078.11 1151.15 1065.19 1152.26 L 1065.03 1168.91 L 1049.83 1169.72 L 1049.94 1195.08 L 999.195 1194.47 L 999.255 1169.48 C 994.447 1169.61 989.546 1169.4 984.729 1169.26 C 984.093 1164.35 984.258 1157.09 984.205 1151.97 C 971.517 1151.59 958.843 1150.86 946.196 1149.77 L 945.435 1162.84 C 939.614 1161.39 931.577 1160.17 925.51 1159.08 C 925.801 1152.03 926.281 1147 927.172 1139.99 L 937.728 1140.7 L 940.313 1108.23 C 944.274 1108.56 945.131 1108.73 948.985 1108.12 C 953.814 1100.21 952.149 1071.98 955.893 1066.24 C 957.71 1066.11 958.832 1066.04 960.678 1066.07 L 962.153 1066.1 C 965.508 1061.87 968.93 1013.29 971.42 1002.12 C 973.536 1000.28 972.371 1001.05 976.425 1001.2 C 979.659 998.107 985.877 938.245 987.507 928.361 L 997.715 928.685 C 999.802 915.147 1003.88 873.737 1004.21 860.614 C 1001.56 861.496 974.092 899.428 973.648 903.894 L 976.846 905.623 C 976.806 911.263 933.438 971.024 927.36 980.525 L 933.797 985.786 C 929.008 993.378 897.022 1050.91 893.414 1052.9 L 890.482 1051.06 C 886.971 1052.7 873.38 1074.43 875.934 1079.08 C 876.275 1079.7 877.064 1080.63 877.555 1081.22 C 877.692 1086.9 870.782 1096.37 867.819 1101.75 L 873.923 1107.2 C 871.115 1112.02 867.98 1117.73 865.055 1122.37 L 845.73 1109.66 C 848.251 1105.85 851.598 1101.1 853.739 1097.17 C 842.744 1089.41 830.259 1080.1 819.164 1072.8 L 809.752 1086.55 C 803.681 1082.91 800.637 1080.53 795.065 1076.11 C 789.307 1082.22 783.621 1088.41 778.01 1094.66 C 767.824 1083.59 755.478 1070.73 746.813 1058.59 C 754.208 1053.36 757.986 1050.46 764.619 1044.37 C 761.701 1040.7 758.116 1036.44 755.407 1032.71 C 758.681 1030.25 762.276 1027.43 765.637 1025.17 C 757.795 1010.68 749.816 996.265 741.702 981.926 L 731.049 986.961 C 728.571 980.751 726.626 977.246 723.416 971.406 C 730.038 967.46 736.71 963.599 743.431 959.824 C 745.706 963.501 747.95 967.198 750.162 970.914 C 754.562 968.255 779.198 952.561 782.318 952.814 L 782.938 953.358 L 783.267 955.954 C 790.192 952.788 818.112 935.052 822.41 929.19 C 820.569 927.048 820.349 927.076 819.419 924.472 C 822.889 920.247 858.339 896.835 865.585 892.606 C 868.778 890.742 866.796 894.17 870.909 896.662 C 878.872 892.603 889.478 884.538 897.071 879.179 C 909.572 870.298 922.156 861.533 934.821 852.886 L 936.612 853.246 L 939.151 857.73 C 943.313 857.597 973.21 831.322 978.593 826.815 C 962.905 827.081 941.266 828.62 925.597 829.925 L 925.946 845.629 C 916.08 846.582 849.537 852.655 845.979 855.098 C 846.074 857.283 846.44 860.975 845.218 861.25 C 834.76 863.6 787.316 864.138 782.025 868.683 L 781.825 874.435 C 778.684 877.471 750.64 877.273 744.419 877.623 L 744.614 887.767 C 736.617 888.873 727.317 889.523 719.192 890.288 L 719.305 903.532 C 712.17 904.251 705.066 905.24 698.006 906.496 L 696.135 887.605 L 707.298 886.818 C 705.586 869.884 704.049 852.934 702.688 835.969 L 686.943 836.002 L 686.953 820.553 L 663.137 820.838 C 662.999 807.814 662.766 794.791 662.436 781.771 L 685.987 781.368 L 685.639 766.12 L 701.651 766.085 C 703.094 749.304 705.233 731.876 707.214 715.137 L 694.453 714.362 C 695.759 707.858 696.522 703.024 697.303 696.434 C 705.724 697.895 712.477 698.773 720.991 699.636 L 718.755 713.285 C 726.729 714.379 735.727 714.267 743.036 715.827 C 745.019 718.68 744.214 719.597 744.167 723.954 C 747.418 728.615 770.21 726.567 781.454 730.239 C 782.406 732.857 782.123 732.459 781.818 735.273 C 789.604 740.695 841.226 740.228 845.545 744.238 C 845.385 747.612 845 747.631 846.208 750.608 C 854.414 752.737 867.073 753.391 875.784 754.083 C 892.256 755.241 908.712 756.618 925.147 758.213 L 925.342 772.071 L 981.763 775.727 C 975.305 771.176 943.689 744.954 939.843 745.118 L 937.043 749.111 C 932.909 749.017 878.843 703.958 870.242 702.712 L 867.536 706.101 C 864.88 705.749 827.235 679.562 821.465 675.642 L 825.798 669.149 C 819.716 664.824 791.466 644.677 786.687 643.153 L 783.374 646.238 C 782.803 646.383 782.233 646.528 781.662 646.673 C 773.092 640.259 759.955 630.648 751.026 626.268 C 748.335 630.609 745.75 635.382 743.226 639.852 L 725.214 627.866 C 728.448 622.282 731.034 616.887 733.863 611.098 L 742.834 617.118 C 749.089 603.989 760.119 585.662 767.445 572.319 C 763.315 569.025 758.168 565.388 753.865 562.191 L 762.274 553.027 C 756.775 547.596 750.782 542.181 745.098 536.899 C 756.532 525.098 765.63 511.775 778.095 500.41 L 795.285 518.693 L 806.514 509.744 C 810.076 513.322 814.224 518.891 817.454 522.944 C 828.948 515.229 840.27 507.721 851.404 499.488 L 844.684 486.373 L 864.237 474.234 C 869.176 481.983 873.402 485.394 868.199 494.277 C 868.802 498.07 874.387 506.205 876.624 510.283 C 876.277 516.789 875.147 510.442 873.349 516.469 C 875.696 522.102 885.863 542.486 890.578 545.311 L 893.774 543.677 C 894.375 543.819 894.976 543.962 895.576 544.105 C 906.473 560.849 923.561 593.901 933.862 608.721 L 927.75 614.798 C 942.881 637.4 961.174 665.671 977.341 686.898 L 970.436 692.178 C 982.405 708.907 994.069 726.791 1005.4 743.98 C 1002.18 722.747 1000.04 695.218 998.694 673.723 L 987.436 673.597 C 986.802 664.678 979.461 605.598 975.734 602.205 C 973.771 602.322 969.906 602.706 969.577 601.554 C 966.981 592.475 964.906 543.165 960.734 538.457 C 957.044 538.799 958.174 539.233 955.162 537.964 C 951.777 528.836 952.428 507.041 948.57 496.976 C 945.336 496.996 944.365 497.077 941.122 496.535 C 938.204 491.878 937.245 470.562 936.689 463.922 C 932.559 464.508 927.886 464.598 923.681 464.793 C 923.271 458.27 922.92 451.744 922.625 445.215 C 929.745 443.938 935.275 443.281 942.492 442.579 C 942.787 446.336 943.659 450.47 944.339 454.213 C 956.028 453.259 968.312 452.734 980.074 452.099 L 980.962 437.553 L 992.686 437.809 C 993.511 431.168 993.941 424.358 994.453 417.671 z" fill="rgb(254,202,117)" transform="translate(0,0)"></path>
<path d="M 994.453 417.671 L 1053.72 417.831 L 1053.77 437.068 L 1067.7 437.002 L 1067.87 451.42 C 1080.74 452.645 1094.06 453.502 1106.98 454.487 L 1108.47 442.316 C 1114.46 443.011 1121.81 444.468 1127.87 445.51 L 1125.57 464.781 L 1114.16 464.987 C 1113.56 471.481 1113.05 493.019 1109.54 496.31 C 1107.36 496.233 1105.18 496.121 1103.01 495.972 C 1098.15 500.744 1099.6 531.593 1094.83 538.423 L 1089.65 538.122 C 1085.23 542.633 1083.45 596.297 1079.2 602.256 C 1076.8 602.534 1076.23 602.631 1073.92 603.293 C 1069.54 609.887 1067.81 661.032 1062.68 672.687 C 1059.67 674.756 1055.76 674.011 1051.93 673.831 C 1049.8 696.715 1048.1 719.636 1046.82 742.583 C 1051.09 737.079 1078.84 694.728 1078.7 690.613 C 1075.77 688.578 1074 687.38 1074.38 686.686 C 1080.44 675.579 1120.88 621.483 1121.58 613.911 C 1119.89 612.212 1116.96 609.302 1118.46 606.767 C 1124.24 597 1152.47 545.174 1157.68 542.048 C 1160.3 543.453 1159.25 543.315 1161.97 543.392 C 1166.57 538.3 1176.43 522.553 1176.73 515.452 C 1172.26 506.023 1178.54 500.654 1183.93 492.577 C 1181.6 490.701 1180.47 490.177 1179.55 487.331 C 1180.02 482.317 1183.94 477.729 1186.85 472.889 C 1193.34 477.58 1198.46 481.306 1205.35 485.313 C 1203.69 489.247 1201.49 493.427 1199.58 497.289 C 1207.95 504.716 1223.71 515.169 1233.43 522.194 L 1243.25 508.56 C 1247.83 511.714 1252.32 515.169 1256.78 518.505 C 1261.86 512.427 1267.81 506.539 1273.36 500.836 C 1284.33 513.061 1295.12 525.448 1305.72 537.992 C 1299.74 542.843 1294.14 547.907 1288.4 553.032 C 1291 557.186 1293.82 560.388 1296.92 564.152 C 1293.02 567.429 1289.16 569.642 1284.84 572.316 C 1289.9 583.417 1302.86 605.32 1309.06 616.744 C 1311.93 614.729 1314.78 612.689 1317.61 610.626 C 1320.65 616.539 1323.69 622.028 1325.81 628.339 C 1318.23 631.698 1313.57 635.234 1306.98 640.106 C 1304.44 635.985 1301.86 631.135 1299.47 626.87 C 1293.2 630.314 1269.9 645.892 1267.49 646.811 L 1265.02 644.248 C 1259.97 644.461 1231.26 664.331 1224.72 668.64 C 1226.54 671.255 1228.26 672.973 1228.26 676.044 C 1224.14 679.588 1184.44 705.979 1180.63 706.606 C 1178.46 703.946 1179.35 704.492 1176.58 702.848 C 1163.16 710.882 1147.65 724.209 1134.67 733.528 C 1129.54 737.208 1121.24 744.591 1115.87 746.783 C 1111.38 746.515 1112.96 746.797 1108.84 743.925 C 1096.96 751.978 1081.39 766.473 1069.07 776.131 C 1087.35 775.111 1105.62 773.876 1123.87 772.424 L 1123.14 758.282 C 1134.54 756.78 1199.44 752.968 1203.86 750.233 C 1203.94 747.869 1204.07 746.508 1204.38 744.16 C 1208.74 739.834 1260.72 739.549 1267.56 735.607 C 1267.63 732.953 1267.67 732.328 1268.16 729.728 C 1275.42 724.801 1302.51 728.688 1306 723.527 C 1305.78 720.667 1305.43 719.37 1306.52 716.695 C 1310.27 714.735 1326.68 713.584 1331.55 713.091 L 1331.2 700.337 C 1337.84 698.816 1346.37 697.778 1353.27 696.759 C 1354.05 702.765 1354.72 708.884 1355.42 714.909 L 1343.1 715.913 C 1345.41 731.213 1346.6 750.439 1348.21 766.282 L 1363.74 766.316 L 1363.7 780.87 L 1387.22 780.929 L 1387.05 820.785 L 1363.91 820.958 C 1363.64 825.928 1363.74 831.143 1363.74 836.138 L 1347.94 835.828 C 1346.03 852.726 1344.24 869.639 1342.58 886.564 C 1346.36 886.894 1349.97 886.695 1352.77 889.06 C 1354.89 893.073 1353.32 900.263 1352.81 905.336 C 1345.69 904.405 1338.36 903.648 1331.21 902.824 L 1331.92 890.193 C 1324.63 889.837 1309.9 890.573 1305.14 884.59 C 1306.75 870.786 1275.93 881.441 1268.79 874.359 C 1268.95 872.041 1269.4 868.083 1268.17 867.775 C 1257.62 865.125 1210.48 863.459 1203.69 860.492 C 1203.67 858.792 1203.69 857.093 1203.73 855.394 C 1199.75 851.832 1133.11 846.571 1123.62 845.651 L 1123.99 829.253 L 1070.03 826.031 C 1077.06 831.583 1104.37 855.174 1110.22 857.435 C 1110.91 855.653 1111.2 855.017 1112.03 853.344 C 1117.39 852.796 1165.93 889.723 1175.79 895.359 C 1181.3 893.547 1175.57 893.761 1180.85 890.478 C 1187.95 894.758 1228.6 920.323 1230.04 925.135 C 1228.33 927.003 1228.17 926.946 1227.26 929.259 C 1229.26 932.8 1258.85 951.362 1264.4 954.524 C 1267.6 956.343 1265.63 953.383 1269.37 952.021 C 1274.57 954.746 1292.74 967.774 1299.67 972.161 C 1302.34 968.133 1304.11 963.327 1306.01 958.835 C 1312.37 962.721 1319.78 966.436 1326.44 969.945 C 1322.11 976.223 1320.3 979.635 1317.6 986.65 L 1306.43 982.282 C 1299.23 996.957 1289.99 1012.04 1281.88 1026.46 C 1285.72 1028.54 1289.41 1030.9 1293.12 1033.2 L 1284.05 1042.82 C 1289.62 1048.3 1296.32 1054.14 1302.15 1059.46 C 1292.53 1072.04 1282.45 1082.87 1271.74 1094.51 C 1259.46 1078.98 1258.89 1073.24 1241.89 1086.67 L 1231.52 1073.54 C 1220.16 1081.15 1208.45 1089.65 1197.2 1097.53 C 1199.67 1101.17 1202.67 1105.05 1205.31 1108.62 C 1198.47 1113.35 1191.51 1117.88 1184.43 1122.23 L 1175.52 1108.01 C 1177.67 1106.51 1181.27 1104.48 1183.63 1103.07 C 1173.66 1089.1 1173.93 1090.69 1173.63 1074.78 C 1173.58 1072.09 1161.55 1052.41 1158.47 1050.82 L 1155.1 1052.68 C 1152.88 1051.53 1120.28 993.484 1117.11 986.751 C 1117.78 983.933 1117.96 984.656 1121.3 982.547 C 1121.72 976.049 1079.71 921.035 1073.44 910.521 C 1073.39 903.177 1074.85 910.427 1076.49 904.678 C 1070.12 892.298 1054.35 870.403 1046.17 858.529 L 1052.26 928.927 L 1063.06 929.047 C 1064.28 938.024 1070.53 998.328 1073.28 1001.41 C 1073.86 1001.38 1076.55 1001.2 1077.06 1001.31 C 1082.9 1002.58 1081.22 1057.07 1088.2 1064.71 C 1089.57 1064.75 1093.38 1064.74 1093.69 1065.54 C 1097.3 1074.91 1097.16 1096.16 1099.42 1105.99 C 1101.25 1107.73 1103.97 1107.08 1107.39 1107.23 C 1112.4 1113.13 1108.44 1131.16 1111.87 1138.37 C 1113.87 1142.59 1117.1 1139.12 1120.86 1140.55 C 1123.77 1145.76 1123.68 1152.6 1124.29 1158.82 L 1104.91 1161.66 L 1103.95 1149.14 C 1091.03 1150.11 1078.11 1151.15 1065.19 1152.26 L 1065.03 1168.91 L 1049.83 1169.72 L 1049.94 1195.08 L 999.195 1194.47 L 999.255 1169.48 C 994.447 1169.61 989.546 1169.4 984.729 1169.26 C 984.093 1164.35 984.258 1157.09 984.205 1151.97 C 971.517 1151.59 958.843 1150.86 946.196 1149.77 L 945.435 1162.84 C 939.614 1161.39 931.577 1160.17 925.51 1159.08 C 925.801 1152.03 926.281 1147 927.172 1139.99 L 937.728 1140.7 L 940.313 1108.23 C 944.274 1108.56 945.131 1108.73 948.985 1108.12 C 953.814 1100.21 952.149 1071.98 955.893 1066.24 C 957.71 1066.11 958.832 1066.04 960.678 1066.07 L 962.153 1066.1 C 965.508 1061.87 968.93 1013.29 971.42 1002.12 C 973.536 1000.28 972.371 1001.05 976.425 1001.2 C 979.659 998.107 985.877 938.245 987.507 928.361 L 997.715 928.685 C 999.802 915.147 1003.88 873.737 1004.21 860.614 C 1001.56 861.496 974.092 899.428 973.648 903.894 L 976.846 905.623 C 976.806 911.263 933.438 971.024 927.36 980.525 L 933.797 985.786 C 929.008 993.378 897.022 1050.91 893.414 1052.9 L 890.482 1051.06 C 886.971 1052.7 873.38 1074.43 875.934 1079.08 C 876.275 1079.7 877.064 1080.63 877.555 1081.22 C 877.692 1086.9 870.782 1096.37 867.819 1101.75 L 873.923 1107.2 C 871.115 1112.02 867.98 1117.73 865.055 1122.37 L 845.73 1109.66 C 848.251 1105.85 851.598 1101.1 853.739 1097.17 C 842.744 1089.41 830.259 1080.1 819.164 1072.8 L 809.752 1086.55 C 803.681 1082.91 800.637 1080.53 795.065 1076.11 C 789.307 1082.22 783.621 1088.41 778.01 1094.66 C 767.824 1083.59 755.478 1070.73 746.813 1058.59 C 754.208 1053.36 757.986 1050.46 764.619 1044.37 C 761.701 1040.7 758.116 1036.44 755.407 1032.71 C 758.681 1030.25 762.276 1027.43 765.637 1025.17 C 757.795 1010.68 749.816 996.265 741.702 981.926 L 731.049 986.961 C 728.571 980.751 726.626 977.246 723.416 971.406 C 730.038 967.46 736.71 963.599 743.431 959.824 C 745.706 963.501 747.95 967.198 750.162 970.914 C 754.562 968.255 779.198 952.561 782.318 952.814 L 782.938 953.358 C 780.372 956.303 753.998 971.409 749.259 974.228 L 742.838 962.471 L 726.322 972.426 L 732.333 983.931 C 735.503 982.262 739.53 980.489 742.83 978.921 C 750.341 993.728 760.593 1010.7 768.659 1025.81 L 758.666 1033.05 C 761.766 1036.88 764.804 1040.75 767.776 1044.67 C 761.408 1050.77 757.063 1054.1 749.934 1059.23 C 758.293 1070.38 768.987 1080.61 778.005 1091.69 C 783.601 1085.33 789.233 1079 794.899 1072.7 C 799.882 1076.95 803.841 1080.1 809.123 1083.97 L 818.976 1069.54 L 856.693 1096.61 C 854.343 1100.72 851.525 1105.05 849.011 1109.1 L 864.422 1119.31 C 869.585 1110.97 871.344 1110.23 865.464 1102.17 C 866.474 1098.58 870.141 1093.27 872.194 1090.15 C 878.47 1080.64 872.873 1083.22 871.589 1077.84 C 875.094 1069.72 879.718 1061.56 884.472 1054.12 C 890.654 1044.45 888.946 1050.02 893.829 1049.03 C 906.489 1028.25 918.828 1007.29 930.841 986.137 L 923.997 980.607 C 930.209 971.471 972.32 912.37 973.549 907.315 L 970.195 905.012 L 969.993 903.53 C 971.852 899.545 1001.6 858.3 1005.74 853.429 L 1007.14 853.544 L 1007.21 859.501 C 1004.59 877.984 1003.19 914.569 999.581 929.806 C 993.643 933.717 991.113 926.977 988.959 934.481 C 986.075 944.528 983.658 998.879 978.566 1003.53 L 974.131 1004.28 C 968.743 1013.7 968.969 1062.96 963.813 1068.36 C 961.107 1068.77 960.895 1068.76 958.154 1068.59 C 953.799 1075.24 956.305 1110.3 948.95 1111.32 C 947.428 1111.53 945.566 1111.26 944.021 1111.17 C 940.286 1114.13 940.237 1137.29 939.741 1143.21 C 935.906 1142.62 933.206 1141.63 929.953 1143.43 C 927.56 1146.61 928.062 1152.21 927.799 1156.5 C 932.992 1157.62 938.303 1158.83 943.512 1159.81 C 943.738 1155.49 943.93 1151.17 944.089 1146.84 C 959.162 1148.27 970.862 1149.15 986.124 1149.34 C 986.301 1155.23 986.567 1161.25 986.518 1167.13 L 1001.84 1167.39 L 1001.73 1191.91 C 1016.95 1191.97 1032.17 1192.21 1047.39 1192.63 L 1047.5 1167.34 L 1062.97 1166.98 L 1063 1150.23 C 1075.34 1149.04 1093.66 1146.93 1105.9 1146.87 L 1106.87 1159.29 L 1122.13 1156.66 C 1121.36 1151.48 1120.75 1147.25 1120.38 1141.97 L 1109.15 1143.34 C 1108.78 1136.5 1108.57 1114.92 1105.3 1110.19 C 1102.44 1109.86 1101.87 1109.91 1098.97 1110.1 C 1094.5 1106.24 1095.03 1075.41 1092.28 1068.32 C 1091.77 1067.03 1087.13 1067.68 1086.06 1067.77 C 1081.65 1064.03 1079.52 1014.04 1076.49 1005.02 C 1076.03 1003.63 1072.67 1003.7 1071.17 1003.62 C 1066.18 996.945 1065 935.942 1058.97 931.402 C 1055.87 931.256 1053.24 931.19 1050.14 931.192 C 1047.72 905.113 1045.09 877.852 1043.37 851.752 C 1052.29 862.386 1073.41 893.545 1080.12 905.603 C 1078.87 909.76 1075.2 908.786 1076.95 911.172 C 1093.69 934.046 1109.02 958.922 1125.54 981.798 L 1119.14 986.627 C 1123.4 994.063 1153.23 1047.84 1155.69 1049.67 L 1159.32 1048.61 C 1163.8 1051.51 1175.88 1071.91 1177.53 1078.03 C 1177.92 1079.45 1176.48 1083.11 1175.88 1084.72 C 1177.24 1092.53 1182.23 1097.38 1187.22 1103.79 L 1178.03 1108.75 L 1185.42 1119.01 C 1190.82 1115.45 1196.86 1111.64 1202.07 1107.93 L 1193.87 1096.53 C 1203.77 1089.72 1222.55 1075.9 1232.25 1070.31 C 1235.38 1074.64 1239.11 1079.56 1242.01 1083.95 C 1246.3 1080.74 1251.83 1076.35 1256.17 1073.45 C 1262.58 1080.17 1266.19 1084.26 1271.76 1091.66 C 1280.98 1081.09 1290.13 1070.47 1299.21 1059.78 L 1288.4 1049.97 C 1287.83 1049.67 1287.87 1049.57 1287.36 1048.94 C 1284.94 1046.84 1283.43 1046.04 1282.82 1042.94 C 1283.51 1039.26 1286.84 1036.36 1289.46 1033.45 L 1278.64 1026.96 C 1286.32 1014.08 1299.53 993.05 1304.51 979.985 C 1308.3 979.79 1312.42 982.386 1315.99 984.134 C 1317.74 979.918 1320.81 974.732 1323.07 970.631 C 1317.84 968.073 1312.14 964.888 1306.96 962.118 C 1304.84 966.734 1302.43 971.415 1300.16 975.978 C 1297.52 973.579 1272.02 956.45 1270.15 956.06 L 1268.09 958.774 L 1266.42 958.661 C 1260.34 954.725 1225.37 933.865 1223.8 928.855 C 1225.79 926.627 1225.35 927.359 1226.71 924.739 C 1222.57 920.713 1185.3 894.774 1181.08 894.439 L 1177.84 898.096 C 1170.27 897.96 1121.47 857.8 1114.52 856.903 C 1112.91 858.928 1113.02 859.134 1110.75 860.23 C 1104.44 858.418 1071.18 830.082 1062.38 823.656 C 1081.9 823.691 1106.35 825.631 1126.2 826.869 L 1125.89 843.152 C 1134.58 844.157 1204.84 850.673 1207.14 852.611 L 1206.51 857.526 C 1209.86 861.718 1263.66 862.251 1270.69 866.198 C 1271.08 868.239 1271.17 870.254 1271.23 872.328 C 1278.23 877.829 1302.94 870.91 1307.95 878.72 C 1307.83 880.054 1307.45 884.034 1307.89 884.625 C 1311.02 888.827 1326.89 885.251 1333.44 889.248 C 1334.56 892.943 1333.57 896.733 1332.98 900.63 L 1350.62 902.684 L 1351.59 889.516 L 1339.99 888.643 C 1342.05 870.4 1343.92 852.138 1345.62 833.859 C 1350.53 833.664 1356.1 833.836 1361.06 833.873 C 1361.49 828.902 1361.84 823.924 1362.11 818.942 C 1369.67 818.418 1377.32 818.493 1384.9 818.469 L 1384.93 783.11 L 1361.33 783.076 L 1361.28 768.777 L 1346.09 768.434 C 1343.74 750.555 1343.04 732.42 1340.44 714.023 C 1344.11 713.403 1348.9 713.154 1352.69 712.848 L 1351.67 699.361 C 1345.6 700.138 1339.25 701.244 1333.18 702.213 L 1334.04 715.079 C 1327.4 716.17 1313.88 716.13 1309.1 718.656 C 1308.78 720.936 1308.76 721.609 1308.88 723.849 L 1308.99 725.856 C 1305.12 730.253 1283.51 728.192 1275.66 730.101 C 1264.59 732.792 1272.8 732.524 1268.91 738.53 C 1251.39 742.418 1230.55 741.36 1212.69 744.462 C 1201.85 746.343 1209.82 747.812 1205.99 753.351 C 1181.5 757.234 1151.97 756.711 1126.43 760.567 L 1125.12 760.774 C 1125.7 763.091 1125.99 763.526 1125.84 765.731 C 1126.07 769.152 1126.43 770.636 1125.32 773.921 C 1119.12 776.53 1072.44 778.334 1063.55 778.405 C 1068.34 773.825 1107.22 740.508 1110.29 739.366 C 1111.2 741.194 1112.01 742.624 1113.04 744.391 C 1117.37 744.502 1126.48 736.757 1130.21 733.922 C 1145.72 722.142 1161.35 710.578 1177.06 699.066 C 1180.64 698.893 1177.71 701.532 1182.08 703.658 C 1188.56 699.414 1222.99 678.913 1224.82 674.436 C 1223.49 671.996 1222.51 670.745 1222.4 667.961 C 1227.53 663.639 1260.79 641.528 1265.45 640.734 C 1267.17 642.976 1266.31 642.383 1268.69 643.58 C 1275.83 639.947 1291.7 628.483 1299.91 623.434 C 1302.34 627.729 1304.92 632.077 1307.4 636.353 C 1313.05 632.674 1317.17 630.357 1323.14 627.195 C 1321.37 622.789 1319.08 618.568 1316.91 614.334 L 1307.99 620.415 C 1300.39 604.571 1290.1 587.65 1281.52 572.003 L 1293.74 564.094 C 1290.5 560.248 1288.21 556.563 1285.46 552.383 C 1291.05 547.564 1296.67 542.775 1302.31 538.015 C 1294.21 527.71 1282.25 514.283 1273.28 504.644 C 1267.8 509.622 1261.88 516.498 1256.81 522.088 C 1252.73 517.939 1248.63 514.849 1244.1 511.238 L 1233.69 525.559 C 1224 517.253 1207.62 506.716 1196.37 497.987 C 1198.48 494.393 1200.58 490.235 1202.57 486.523 C 1197.92 483.676 1191.98 479.303 1187.38 476.095 C 1183.31 482.73 1180.63 485.043 1185.27 491.492 C 1187.88 495.119 1175.71 504.01 1176.77 510.51 C 1178.41 511.532 1179.54 512.296 1181.1 513.443 C 1181.84 517.715 1169.8 535.729 1167.07 540.659 C 1161.78 550.238 1161.43 545.099 1157.39 546.02 C 1146.04 562.522 1129.4 591.2 1119.55 609.007 C 1122.49 610.689 1123.42 610.997 1125.6 613.677 C 1122.55 623.683 1084.15 672.97 1078.79 685.407 C 1078.17 686.85 1080.5 689.062 1081.28 689.887 C 1081.63 690.226 1081.98 690.565 1082.33 690.904 C 1079.84 696.909 1070.71 710.068 1066.71 716.156 C 1059.08 727.805 1051.54 739.509 1044.08 751.268 C 1044.33 728.028 1047.73 694.992 1049.7 671.301 L 1061.46 671.809 C 1062.96 660.253 1068.94 608.365 1071.78 599.864 C 1073.53 599.776 1074.92 599.744 1076.66 599.728 C 1080.16 596.214 1084.4 544.935 1086.84 535.732 C 1088.84 535.314 1089.16 535.361 1091.13 535.556 L 1092.92 535.744 C 1096.58 531.572 1097.12 504.756 1099.14 497.453 C 1101.55 488.725 1102.85 496.377 1108.64 492.945 C 1110.83 486.602 1111.69 469.645 1112.3 462.005 C 1116.28 462.175 1119.6 463.208 1122.99 460.877 C 1125.39 457.428 1125.07 451.618 1125.3 447.156 C 1120.23 446.151 1115.32 445.508 1110.21 444.795 L 1109.36 457.265 C 1094.75 456.031 1080.12 454.918 1065.49 453.926 L 1065.49 438.996 L 1051.49 439.254 L 1051.41 419.939 L 996.422 420.005 L 994.909 440.061 L 982.999 440.082 L 982.957 454.12 C 969.37 455.708 955.788 455.346 941.432 457.317 L 940.76 444.611 L 925.239 447.099 L 926.054 462.224 C 930.253 462 934.632 461.613 938.845 461.306 C 939.452 468.768 940.391 487.621 942.321 493.806 C 945.284 496.136 949.574 492.83 950.383 494.236 C 954.658 501.662 952.866 528.292 958.212 535.54 C 958.811 535.444 961.366 535 961.907 535.051 C 968.36 535.663 966.459 593.199 973.04 599.887 L 978.318 599.333 C 980.487 601.144 988.712 663.095 989.748 671.057 C 994.315 670.889 995.657 670.711 1000.06 671.55 C 1001.25 674.405 1007.19 744.455 1007.51 750 C 1003.31 745.144 971.368 698.386 968.244 692.196 C 969.07 689.601 971.505 688.111 973.711 686.268 C 957.03 662.156 940.504 637.937 924.136 613.612 C 927.496 610.982 928.479 611.113 929.81 607.756 C 925.222 597.812 901.358 557.284 895.005 548.198 C 892.995 548.129 890.376 548.07 888.76 546.919 C 883.248 542.996 871.891 520.702 870.617 514.853 C 875.153 507.615 868.405 500.565 864.297 494.031 L 870.062 488.066 L 863.853 477.303 L 847.326 487.343 L 854.716 499.612 C 846.532 506.187 826.719 519.757 817.912 525.322 C 814.717 524.087 814.971 523.379 812.433 520.276 C 811.903 519.722 811.894 519.742 811.554 519.056 C 808.535 515.236 809.414 515.05 805.66 514.018 C 801.868 515.195 798.328 518.995 795.249 521.766 C 789.795 515.783 783.906 509.258 778.114 503.612 C 768.148 513.497 757.56 526.098 748.168 536.801 C 753.61 541.743 760.31 547.529 765.357 552.693 C 762.838 555.744 759.962 559.437 757.201 562.191 C 761.401 565.124 766.511 568.509 770.533 571.545 C 762.083 588.293 751.705 604.128 743.352 620.338 C 740.637 618.209 738.059 616.088 735.157 614.217 L 728.58 627.096 L 742.152 636.608 C 744.847 632.102 747.997 627.144 750.303 622.482 C 760.919 629.266 771.39 636.273 781.711 643.497 C 782.903 642.192 784.072 640.999 785.496 639.949 C 789.951 641.061 823.673 664.911 829.035 668.651 L 829.231 670.07 L 825.981 673.809 C 826.632 677.897 859.776 698.627 865.657 702.533 C 870.515 699.9 864.665 699.213 870.071 698.688 C 878.522 704.39 933.527 745.717 936.804 745.489 L 938.677 741.363 L 939.987 741.032 C 949.661 747.264 978.053 769.747 987.245 778.229 C 967.486 777.729 942.888 776.101 923.057 774.338 L 922.908 760.215 C 904.402 758.971 860.982 756.647 844.046 753.199 C 842.545 751.084 842.939 749.641 842.964 746.955 C 839.672 743.3 794.641 741.41 785.714 739.525 C 771.291 736.478 785.834 734.037 774.295 731.098 C 765.516 728.862 747.307 731.258 740.971 725.235 C 741.364 722.507 741.193 723.296 742.262 720.74 C 737.735 715.982 723.181 715.803 716.189 715.16 L 717.788 701.985 L 699.537 699.491 L 697.42 712.351 L 709.309 713.208 C 707.934 731.645 704.904 749.736 703.699 768.062 L 687.919 768.541 L 688.182 783.957 L 664.952 784.113 L 665.422 818.323 L 689.209 818.191 L 689.01 834.01 L 704.481 833.974 C 705.427 845.05 710.085 880.579 708.199 888.263 C 705.622 889.331 704.719 889.354 701.993 889.812 C 697.462 893.974 699.325 897.762 700.151 903.533 C 705.733 902.737 711.413 901.783 717.028 901.506 L 716.978 888.266 C 723.176 887.776 735.738 887.273 741.05 885.323 C 743.638 880.881 739.585 879.47 743.012 875.907 C 753.134 874.17 772.348 875.822 779.093 873.05 C 779.96 870.59 779.574 869.285 779.339 866.653 C 783.975 861.839 833.726 861.171 842.82 858.688 C 843.831 858.412 843.431 854.952 843.297 853.264 C 845.963 850.836 914.855 844.253 923.414 843.745 L 923.316 827.413 L 987.297 823.606 L 985.677 824.749 C 971.589 834.776 951.561 854.4 938.21 861.562 C 937.037 859.67 936.434 858.426 935.463 856.415 C 929.228 857.67 879.858 894.498 869.431 900.524 C 864.927 896.646 869.707 896.086 865.077 895.39 C 859.712 898.577 823.992 922.047 822.988 925.292 L 826.587 930.185 C 820.105 934.924 787.73 958.34 782.02 958.712 L 781.872 957.514 L 783.267 955.954 C 790.192 952.788 818.112 935.052 822.41 929.19 C 820.569 927.048 820.349 927.076 819.419 924.472 C 822.889 920.247 858.339 896.835 865.585 892.606 C 868.778 890.742 866.796 894.17 870.909 896.662 C 878.872 892.603 889.478 884.538 897.071 879.179 C 909.572 870.298 922.156 861.533 934.821 852.886 L 936.612 853.246 L 939.151 857.73 C 943.313 857.597 973.21 831.322 978.593 826.815 C 962.905 827.081 941.266 828.62 925.597 829.925 L 925.946 845.629 C 916.08 846.582 849.537 852.655 845.979 855.098 C 846.074 857.283 846.44 860.975 845.218 861.25 C 834.76 863.6 787.316 864.138 782.025 868.683 L 781.825 874.435 C 778.684 877.471 750.64 877.273 744.419 877.623 L 744.614 887.767 C 736.617 888.873 727.317 889.523 719.192 890.288 L 719.305 903.532 C 712.17 904.251 705.066 905.24 698.006 906.496 L 696.135 887.605 L 707.298 886.818 C 705.586 869.884 704.049 852.934 702.688 835.969 L 686.943 836.002 L 686.953 820.553 L 663.137 820.838 C 662.999 807.814 662.766 794.791 662.436 781.771 L 685.987 781.368 L 685.639 766.12 L 701.651 766.085 C 703.094 749.304 705.233 731.876 707.214 715.137 L 694.453 714.362 C 695.759 707.858 696.522 703.024 697.303 696.434 C 705.724 697.895 712.477 698.773 720.991 699.636 L 718.755 713.285 C 726.729 714.379 735.727 714.267 743.036 715.827 C 745.019 718.68 744.214 719.597 744.167 723.954 C 747.418 728.615 770.21 726.567 781.454 730.239 C 782.406 732.857 782.123 732.459 781.818 735.273 C 789.604 740.695 841.226 740.228 845.545 744.238 C 845.385 747.612 845 747.631 846.208 750.608 C 854.414 752.737 867.073 753.391 875.784 754.083 C 892.256 755.241 908.712 756.618 925.147 758.213 L 925.342 772.071 L 981.763 775.727 C 975.305 771.176 943.689 744.954 939.843 745.118 L 937.043 749.111 C 932.909 749.017 878.843 703.958 870.242 702.712 L 867.536 706.101 C 864.88 705.749 827.235 679.562 821.465 675.642 L 825.798 669.149 C 819.716 664.824 791.466 644.677 786.687 643.153 L 783.374 646.238 C 782.803 646.383 782.233 646.528 781.662 646.673 C 773.092 640.259 759.955 630.648 751.026 626.268 C 748.335 630.609 745.75 635.382 743.226 639.852 L 725.214 627.866 C 728.448 622.282 731.034 616.887 733.863 611.098 L 742.834 617.118 C 749.089 603.989 760.119 585.662 767.445 572.319 C 763.315 569.025 758.168 565.388 753.865 562.191 L 762.274 553.027 C 756.775 547.596 750.782 542.181 745.098 536.899 C 756.532 525.098 765.63 511.775 778.095 500.41 L 795.285 518.693 L 806.514 509.744 C 810.076 513.322 814.224 518.891 817.454 522.944 C 828.948 515.229 840.27 507.721 851.404 499.488 L 844.684 486.373 L 864.237 474.234 C 869.176 481.983 873.402 485.394 868.199 494.277 C 868.802 498.07 874.387 506.205 876.624 510.283 C 876.277 516.789 875.147 510.442 873.349 516.469 C 875.696 522.102 885.863 542.486 890.578 545.311 L 893.774 543.677 C 894.375 543.819 894.976 543.962 895.576 544.105 C 906.473 560.849 923.561 593.901 933.862 608.721 L 927.75 614.798 C 942.881 637.4 961.174 665.671 977.341 686.898 L 970.436 692.178 C 982.405 708.907 994.069 726.791 1005.4 743.98 C 1002.18 722.747 1000.04 695.218 998.694 673.723 L 987.436 673.597 C 986.802 664.678 979.461 605.598 975.734 602.205 C 973.771 602.322 969.906 602.706 969.577 601.554 C 966.981 592.475 964.906 543.165 960.734 538.457 C 957.044 538.799 958.174 539.233 955.162 537.964 C 951.777 528.836 952.428 507.041 948.57 496.976 C 945.336 496.996 944.365 497.077 941.122 496.535 C 938.204 491.878 937.245 470.562 936.689 463.922 C 932.559 464.508 927.886 464.598 923.681 464.793 C 923.271 458.27 922.92 451.744 922.625 445.215 C 929.745 443.938 935.275 443.281 942.492 442.579 C 942.787 446.336 943.659 450.47 944.339 454.213 C 956.028 453.259 968.312 452.734 980.074 452.099 L 980.962 437.553 L 992.686 437.809 C 993.511 431.168 993.941 424.358 994.453 417.671 z" fill="rgb(8,6,4)" transform="translate(0,0)"></path>
<path d="M 1125.84 765.731 C 1124.14 763.771 1124.64 763.368 1125.12 760.774 C 1125.7 763.091 1125.99 763.526 1125.84 765.731 z" fill="rgb(102,79,46)" transform="translate(0,0)"></path>
<path d="M 933.47 1264.78 C 985.509 1273.62 1040.19 1274.01 1092.78 1274.73 C 1073.17 1331.53 1061.02 1386.44 1043.71 1443.44 C 1016.25 1534.11 974.928 1619.99 921.2 1698.02 C 915.396 1705.99 910.016 1713.34 903.795 1721.03 L 840.104 1675.55 C 821.465 1662.41 799.313 1647.72 782.194 1633.13 C 836.462 1555 882.079 1454.53 909.407 1363.56 C 918.922 1331.88 926.337 1297.21 933.47 1264.78 z" fill="rgb(254,202,117)" transform="translate(0,0)"></path>
<path d="M 773.77 1193.2 C 785.163 1199.35 796.897 1207.06 808.102 1213.74 C 837.623 1231.32 869.082 1242.97 901.132 1254.97 C 879.983 1360.46 846.293 1457.95 792.828 1551.81 C 780.829 1572.88 769.462 1592.03 755.036 1611.47 C 754.095 1612.31 754.733 1611.89 752.921 1612.38 C 739.581 1604.41 720.718 1590.24 707.772 1580.93 C 682.1 1562.3 656.319 1543.83 630.429 1525.5 C 689.275 1449.5 732.15 1362.38 756.477 1269.39 C 763.585 1243.01 767.732 1219.55 773.77 1193.2 z" fill="rgb(254,202,117)" transform="translate(0,0)"></path>
<path d="M 1273.66 1204.87 C 1280.6 1227.41 1285.02 1255.67 1292.22 1280.49 C 1316.5 1364.09 1362.83 1456.97 1416.61 1525.54 C 1376.89 1551.81 1334.38 1584.45 1294.65 1612.09 C 1285.69 1601.32 1269.61 1573.99 1262.5 1561.51 C 1216.62 1480.87 1182.1 1394.28 1159.92 1304.2 C 1156.71 1291.13 1151.64 1271.74 1150.53 1258.78 C 1190.59 1248.96 1238.42 1226.17 1273.66 1204.87 z" fill="rgb(254,202,117)" transform="translate(0,0)"></path>
<path d="M 1118.22 1278.67 C 1120.52 1280.78 1125 1303.01 1126.1 1307.54 C 1134.7 1343.36 1145.11 1378.73 1157.27 1413.5 C 1186.66 1495.45 1219.94 1559.82 1267 1632.46 C 1233.73 1656.09 1200.92 1680.15 1167.46 1703.53 C 1159.19 1709.69 1151.44 1715.47 1142.83 1721.21 C 1101.21 1666.59 1055.7 1582.87 1034.65 1517.14 C 1058.41 1461.01 1080.94 1406.1 1099.38 1347.85 C 1106.59 1325.05 1111.64 1301.64 1118.22 1278.67 z" fill="rgb(254,202,117)" transform="translate(0,0)"></path>
<metadata><recraft-signature>{"signed_by": "recraft", "signature_b64": "vmIfUvFXRqNUxKzMLCvux2laxUKYWFXqL4gw6UMEAA+JMjO/2YPqwcwczBg8IAJTXk4RpIokwmpUTBLBTQ5hDQ==", "signing_algo": "Ed25519", "generation_timestamp": 1784328620, "identifier": "c439b772-808d-47fc-95fc-239720c4f9e4"}</recraft-signature></metadata></svg>