<svg xmlns="http://www.w3.org/2000/svg" height="1024" preserveAspectRatio="none" style="display: block;" version="1.1" viewBox="0 0 2048 2048" width="1024">
<path d="M 0 0 L 2048 0 L 2048 2048 L 0 2048 L 0 0 z" fill="rgb(255,255,255)" transform="translate(0,0)"></path>
<path d="M 589.311 887.675 C 669.795 790.965 779.742 723.28 902.336 694.971 C 1017.19 667.936 1154.23 683.502 1259.61 735.003 C 1287.82 748.792 1315.95 765.279 1342.61 781.81 C 1349.53 787.495 1357.02 792.142 1363.99 797.939 C 1391.14 818.322 1433.79 858.512 1455.73 885.288 L 1473.61 908.371 C 1531.49 992.355 1567.99 1059.84 1587.02 1162.35 C 1614.72 1312.98 1580.69 1468.42 1492.58 1593.7 C 1408.74 1715.94 1279.9 1800.02 1134.23 1827.53 C 979.584 1855.43 824.938 1825.9 695.247 1735.57 C 571.538 1648.01 487.088 1515.43 460.024 1366.3 C 435.701 1229.5 462.919 1092.93 531.217 972.551 C 544.505 949.131 558.22 930.075 573.615 908.036 C 579 901.369 584.234 894.58 589.311 887.675 z" fill="rgb(178,77,25)" transform="translate(0,0)"></path>
<path d="M 1015.66 762.058 C 1018.48 761.975 1023.41 761.343 1025.9 762.758 C 1028.69 764.34 1059.54 948.116 1062.59 967.823 L 1080.19 967.894 C 1080.63 993.509 1080.87 1019.13 1080.88 1044.75 C 1100.05 1048.72 1119.14 1053.06 1138.14 1057.77 C 1154.92 1039.75 1172.24 1018.3 1189.19 999.484 C 1195.49 1006.09 1201.92 1012.57 1208.49 1018.91 C 1222.93 1010.54 1252.42 987.776 1266.98 977.167 C 1300.39 952.828 1337.08 927.41 1368.71 901.054 L 1376.68 908.97 C 1369.13 922.43 1352.89 944.662 1343.62 958.159 L 1296.69 1027.72 C 1286.68 1042.58 1275.37 1058.49 1266.15 1073.72 C 1269 1077.27 1273.41 1081.68 1276.62 1085.07 C 1264.09 1100.52 1251.45 1115.87 1238.7 1131.13 C 1241.37 1152.46 1241.51 1175.01 1242.92 1196.63 L 1319.07 1196.98 L 1319.08 1220.25 C 1334.94 1222.15 1358.36 1227.91 1374.87 1230.93 L 1515.91 1256.43 L 1516.09 1269.91 L 1317.94 1305.12 L 1317.86 1322.07 C 1294.17 1323.55 1265.95 1322.27 1241.69 1322.27 C 1241.21 1348.83 1242.44 1375.97 1241.07 1402.43 C 1252.05 1416.42 1264.57 1429.35 1275.72 1443.33 C 1271.45 1448.1 1266.47 1452.31 1261.68 1456.59 C 1271.68 1473.3 1286.52 1491.87 1297.68 1508.44 C 1322.65 1545.54 1350.32 1582.59 1374.74 1619.94 L 1367.25 1627.25 C 1328.6 1600.08 1291.2 1570.72 1252.51 1543.48 C 1236.44 1532.16 1220.35 1518.68 1203.87 1508.09 L 1186.9 1524.57 C 1176.92 1512.31 1166.67 1500.26 1156.18 1488.42 C 1128.06 1490.53 1109.48 1491.95 1081.07 1492.23 L 1081.03 1554.99 L 1060.95 1555.06 C 1056.71 1577.8 1054.74 1600.92 1050.91 1623.34 C 1043.39 1667.49 1037.69 1713.55 1029.24 1757.31 L 1016.35 1757.06 L 1013.79 1743.1 C 1005.53 1680.28 994.391 1617.78 985.888 1554.95 L 962.157 1555.03 C 962.755 1533.25 962.958 1511.47 962.768 1489.68 L 932.362 1493.94 C 921.853 1488.54 910.384 1484.4 899.345 1480.12 C 885.951 1494.19 871.365 1510.77 858.864 1525.45 C 852.955 1520.78 846.325 1513.91 840.839 1508.54 C 818.984 1526.12 791.294 1544.88 768.203 1561.52 C 738.264 1583.28 708.55 1605.35 679.064 1627.73 L 670.702 1619.61 C 707.894 1567.39 746.89 1508.84 785.38 1458.34 C 780.861 1453.33 775.615 1448.04 770.923 1443.1 C 781.053 1431.5 796.072 1415.04 804.54 1402.83 L 795.937 1395.6 L 796.067 1323.09 L 727.178 1322.83 C 726.925 1316.55 727.006 1309.7 726.959 1303.36 C 706.315 1298.4 673.766 1293.49 651.999 1289.29 C 615.323 1282.23 568 1272.15 531.163 1268.31 L 531.095 1253.85 C 539.115 1252 547.015 1250.77 555.077 1249.24 C 612.366 1238.37 671.173 1229.32 728.044 1216.51 C 727.808 1210.06 727.713 1203.5 727.564 1197.03 C 750.723 1196.87 773.883 1197.08 797.035 1197.65 C 804.237 1179.57 812.039 1161.73 820.428 1144.17 C 806.649 1131.68 779.967 1100.33 767.028 1085.44 L 780.293 1071.34 C 770.318 1055.4 755.398 1035.27 744.484 1019.99 L 697.177 953.202 C 687.965 940.308 674.956 923.334 666.994 910.082 C 670.028 907.464 673.229 904 676.066 901.09 C 691.182 910.299 714.333 929.366 729.977 940.223 C 765.931 965.174 801.934 992.412 837.72 1017.44 C 843.946 1012.13 849.657 1005.66 856.508 999.863 C 864.984 1008.69 873.696 1019.32 882.128 1028.42 C 888.622 1035.43 898.489 1045.68 903.786 1053.21 C 922.064 1048.28 943.647 1045.67 962.559 1042.71 C 962.317 1017.61 962.675 991.901 962.781 966.772 L 983.446 966.84 C 987.51 952.308 992.264 914.291 994.942 896.924 C 1002.22 852.027 1009.13 807.07 1015.66 762.058 z" fill="rgb(255,255,255)" transform="translate(0,0)"></path>
<path d="M 1022.36 808.663 C 1026.54 812.436 1047.53 957.06 1049.57 972.145 L 1068.22 972.167 C 1069.14 991.252 1068.97 1011.49 1069.11 1030.68 L 1054.02 1030.76 L 1053.81 1128.44 C 1053.73 1141.53 1052.61 1168.25 1053.8 1180.32 C 1055.67 1182.75 1057.41 1183.16 1060.23 1184.38 C 1065.44 1183.69 1103.8 1141.5 1110 1134.93 L 1169.51 1072.84 C 1163.78 1068.19 1159.2 1064.32 1153.82 1059.28 C 1166.34 1044.67 1179.78 1030.88 1192.35 1015.89 C 1198.61 1021.63 1204.95 1027.27 1211.38 1032.82 C 1257.09 1001.26 1301.01 964.236 1346.84 933.477 C 1339.56 945.877 1328.9 959.736 1320.69 971.767 C 1298.46 1004.36 1272.91 1037.14 1252.49 1070.72 C 1255.99 1074.45 1259.07 1078.78 1262.17 1082.88 C 1254.38 1092.42 1233.02 1116 1227.85 1124.97 C 1223.48 1121.63 1218.63 1117.35 1214.37 1113.74 L 1132.64 1196.78 C 1123.64 1205.89 1112.54 1216.83 1103.71 1226.35 C 1102.17 1228.01 1102.96 1229.73 1103.49 1231.39 C 1104.45 1232.3 1105.4 1233.21 1106.36 1234.11 C 1142.67 1235.22 1218.84 1233.88 1250.69 1233.04 L 1250.74 1210 L 1308.96 1209.74 L 1309.02 1231.63 L 1415.38 1250.93 C 1435.91 1254.64 1459.62 1259.53 1480.12 1262.01 C 1460.79 1268.93 1431.9 1273.05 1411.61 1276.99 C 1377.87 1283.55 1342.65 1288.05 1309.03 1294.42 L 1309.04 1309.55 C 1289.52 1309.51 1269.99 1309.28 1250.47 1308.87 L 1250.01 1292.91 L 1165.16 1293.24 C 1144.74 1293.28 1122.04 1292.72 1101.79 1293.72 C 1111.11 1307.47 1121.64 1318.04 1132.62 1330.26 C 1157.94 1358.44 1187.74 1385.83 1211.98 1414.56 C 1216.35 1410.22 1220.48 1406.65 1225.13 1402.62 C 1237.53 1416.26 1248.68 1430.79 1261.59 1444.5 C 1258.02 1448.47 1252.4 1453.62 1248.44 1457.42 C 1254.55 1468.87 1277.04 1498.98 1285.77 1511.3 L 1344.23 1595.2 C 1315.39 1575.17 1286.82 1554.76 1258.52 1533.97 C 1241.6 1521.3 1224.1 1506.84 1206.43 1495.44 C 1201.17 1499.42 1195.56 1504.43 1190.5 1508.77 C 1177.15 1495.19 1165.84 1479.54 1151.85 1466.39 L 1168.72 1453.03 C 1154.09 1436.46 1132.75 1415.96 1117.11 1398.85 C 1102.39 1382.73 1073.19 1349.5 1058.07 1336.35 C 1054.64 1337.03 1055.5 1336.23 1053.37 1338.1 C 1052.07 1351.25 1052.85 1375.3 1052.84 1389.47 L 1052.95 1484.95 L 1068.66 1485.35 C 1069.19 1504.25 1068.84 1524.86 1068.89 1543.9 L 1051.25 1543.87 C 1047.61 1558.69 1044.91 1581.89 1042.74 1597.41 C 1039.07 1625.53 1034.86 1653.58 1030.13 1681.55 C 1028.44 1691.74 1025.83 1710.91 1023.13 1719.7 C 1022.09 1713.42 1021.19 1707 1020.24 1700.7 C 1010.8 1649.81 1003.61 1595.45 995.856 1544.06 L 975.115 1543.99 L 974.929 1485.05 L 995.824 1484.97 L 996.573 1338.96 C 992.749 1337.55 988.84 1335.55 985.143 1333.77 C 966.861 1353.71 948.737 1373.79 930.773 1394.02 C 913.666 1412.92 894.903 1432.91 878.632 1452.44 L 894.547 1466.91 C 882.153 1478.15 866.919 1496.54 854.993 1509.52 C 849.636 1504.15 845.592 1500.24 839.804 1495.37 C 820.924 1507.99 798.971 1525.06 780.615 1538.72 C 755.19 1557.59 729.588 1576.23 703.813 1594.62 C 732.953 1549.57 767.702 1501.53 799.269 1458.07 C 794.594 1453.58 790.013 1449 785.532 1444.32 C 797.519 1431.53 811.993 1415.53 822.228 1401.51 C 825.462 1405.2 830.973 1410.41 834.56 1413.97 C 859.158 1387.52 883.551 1360.88 907.736 1334.05 C 918.632 1321.96 938.337 1301.21 946.683 1288.33 C 897.217 1288.26 847.751 1288.5 798.288 1289.06 L 798.144 1309.83 C 779.058 1309.53 759.969 1309.41 740.88 1309.46 L 740.763 1289.5 C 699.709 1283.24 658.735 1276.48 617.849 1269.2 C 601.731 1266.27 580.968 1263.06 565.627 1259.12 C 624.05 1247.78 681.956 1238.3 740.401 1226.12 L 740.399 1209.74 L 798.601 1209.86 L 798.559 1230.01 C 848.246 1229.47 898.131 1230.31 947.824 1229.43 C 939.803 1219.06 924.725 1205.58 915.368 1195.59 C 889.539 1167.99 857.845 1139.59 832.964 1111.64 C 828.452 1115.5 823.563 1120.23 819.161 1124.31 L 782.286 1082.27 C 786.054 1078.41 790.584 1074.52 794.622 1070.88 C 765.08 1025.59 727.581 978.874 698.851 932.961 C 732.314 955.849 764.678 981.242 798.009 1004.41 C 810.564 1013.14 823.373 1022.67 835.319 1032.17 L 852.404 1015.96 C 865.325 1029.41 877.602 1045.34 890.483 1059.34 C 886.913 1063.66 881.701 1069 877.803 1073.22 C 913.103 1107.32 953.106 1150.34 987.109 1186.73 L 996.096 1181.64 L 995.652 1030.61 C 988.889 1030.47 981.76 1030.58 974.963 1030.58 L 975.116 972.463 L 996.519 972.354 C 998.679 954.463 1002.78 933.46 1005.53 915.287 C 1010.61 879.664 1016.22 844.118 1022.36 808.663 z" fill="rgb(178,77,25)" transform="translate(0,0)"></path>
<path d="M 1017.68 1193.86 C 1054.52 1190.24 1087.31 1217.22 1090.85 1254.07 C 1094.39 1290.92 1067.35 1323.65 1030.49 1327.11 C 993.741 1330.57 961.129 1303.62 957.596 1266.88 C 954.063 1230.14 980.944 1197.47 1017.68 1193.86 z" fill="rgb(255,255,255)" transform="translate(0,0)"></path>
<path d="M 867.067 1080.8 C 872.422 1083.99 909.865 1125.4 917.215 1133.16 C 936.289 1153.4 955.793 1173.23 975.713 1192.63 C 967.499 1200.31 961.026 1207.51 953.738 1215.91 C 920.401 1178.59 876.481 1140.74 843.904 1102.73 C 851.522 1095.12 859.156 1088.1 867.067 1080.8 z" fill="rgb(255,255,255)" transform="translate(0,0)"></path>
<path d="M 1179.28 1082.76 C 1185.02 1086.42 1197.63 1099.87 1202.8 1105.24 C 1170.49 1140.81 1130.33 1180.59 1095.98 1214.38 C 1094.97 1213.91 1076.27 1194.82 1074 1192.69 C 1108.71 1155.68 1143.81 1119.04 1179.28 1082.76 z" fill="rgb(255,255,255)" transform="translate(0,0)"></path>
<path d="M 1093.17 1306.94 C 1097.63 1311.39 1102.27 1316.14 1106.34 1320.93 C 1136.24 1356.11 1172.06 1388.26 1201.77 1423.33 C 1194.31 1430.07 1186.73 1436.7 1179.06 1443.21 C 1175.46 1440.84 1166.83 1431.64 1163.65 1428.23 C 1133.48 1395.8 1100.56 1362.99 1071.76 1329.49 C 1082.07 1320.59 1085.55 1318.15 1093.17 1306.94 z" fill="rgb(255,255,255)" transform="translate(0,0)"></path>
<path d="M 953.512 1303.7 C 960.465 1311.99 965.697 1318.25 973.637 1325.57 C 940.775 1363.96 901.138 1406.9 866.732 1443.66 C 860.031 1436.89 853.241 1430.2 846.364 1423.61 C 881.84 1382.29 918.265 1344.36 953.512 1303.7 z" fill="rgb(255,255,255)" transform="translate(0,0)"></path>
<path d="M 1009.45 1030.79 L 1040.34 1030.8 C 1040.56 1079.59 1040.51 1128.39 1040.18 1177.18 C 1028.36 1176.64 1020.79 1176 1009.24 1178.22 C 1008.74 1129.35 1009.3 1079.7 1009.45 1030.79 z" fill="rgb(255,255,255)" transform="translate(0,0)"></path>
<path d="M 798.502 1243.47 L 941.726 1242.81 C 941.504 1252.97 941.727 1264.08 941.752 1274.31 C 894.453 1274.08 845.91 1274.98 798.451 1275.16 C 798.765 1265.16 798.511 1253.58 798.502 1243.47 z" fill="rgb(255,255,255)" transform="translate(0,0)"></path>
<path d="M 1217.94 1247.47 C 1228.75 1247.19 1240.12 1247.29 1250.98 1247.25 L 1250.99 1278.29 L 1140.68 1279.35 L 1107.73 1280.12 C 1109.62 1269.91 1108.98 1259.04 1108.71 1248.65 C 1145.12 1248.47 1181.53 1248.08 1217.94 1247.47 z" fill="rgb(255,255,255)" transform="translate(0,0)"></path>
<path d="M 1008.96 1342.83 L 1039.66 1342.92 L 1039.44 1484.53 C 1036.23 1485.35 1013.79 1484.99 1009.16 1484.96 L 1008.96 1342.83 z" fill="rgb(255,255,255)" transform="translate(0,0)"></path>
<path d="M 1263.25 1223.83 C 1273.58 1223.45 1285.17 1223.56 1295.55 1223.73 C 1295.38 1246.54 1295.35 1269.34 1295.47 1292.14 C 1294.03 1295.74 1268.76 1294.1 1263.38 1294.09 C 1262.96 1271.48 1263.05 1246.5 1263.25 1223.83 z" fill="rgb(255,255,255)" transform="translate(0,0)"></path>
<path d="M 754.134 1224.4 C 764.394 1224.24 774.655 1224.22 784.915 1224.33 C 784.907 1247.24 785.431 1272.03 784.847 1294.8 C 774.57 1294.93 764.292 1294.95 754.015 1294.86 C 753.987 1272.34 753.49 1246.69 754.134 1224.4 z" fill="rgb(255,255,255)" transform="translate(0,0)"></path>
<path d="M 1194.02 1036.53 C 1200.47 1038.98 1236.7 1074.84 1244.79 1082.18 C 1237.91 1090.2 1231.94 1096.21 1224.14 1103.35 C 1221.11 1104.93 1179.74 1064.17 1174.54 1058.26 C 1180.61 1050.65 1187.11 1043.39 1194.02 1036.53 z" fill="rgb(255,255,255)" transform="translate(0,0)"></path>
<path d="M 734.512 1240.36 C 736.436 1239.94 736.747 1240.16 738.784 1240.28 C 742.213 1244.92 740.778 1268.78 740.642 1276.19 C 712.131 1271.41 682.412 1267.32 653.775 1263.01 C 644.979 1261.4 635.703 1260.24 626.818 1258.99 C 631.86 1257.82 637.056 1256.97 642.181 1256.23 C 673.076 1251.75 703.662 1244.96 734.512 1240.36 z" fill="rgb(255,255,255)" transform="translate(0,0)"></path>
<path d="M 824.556 1421.64 C 828.782 1424.5 843.388 1439.4 848.677 1444.08 C 856.664 1451.15 866.728 1459.55 874.401 1466.64 C 867.179 1474.93 860.968 1483.09 853.349 1491.25 C 835.824 1473.2 822.929 1461.12 803.472 1445.26 C 810.752 1437.44 817.349 1429.36 824.556 1421.64 z" fill="rgb(255,255,255)" transform="translate(0,0)"></path>
<path d="M 1309.17 1244.59 C 1343.12 1248.19 1381.46 1259.99 1412.08 1262.66 L 1411.98 1265.15 C 1405.13 1265.18 1383.51 1269.37 1376.05 1270.71 C 1353.81 1274.84 1331.51 1278.66 1309.16 1282.17 C 1309 1269.76 1309.16 1257.03 1309.17 1244.59 z" fill="rgb(255,255,255)" transform="translate(0,0)"></path>
<path d="M 850.858 1036.74 C 855.219 1039.74 866.498 1053.95 871.254 1058.85 C 855.013 1072.65 836.474 1090.43 820.919 1105.08 C 818.051 1102.94 804.025 1086.54 800.643 1082.85 C 817.174 1067.26 833.914 1051.89 850.858 1036.74 z" fill="rgb(255,255,255)" transform="translate(0,0)"></path>
<path d="M 989.087 1499.1 C 1010.76 1498.77 1033.07 1498.87 1054.78 1498.89 C 1054.85 1509.21 1054.86 1519.52 1054.8 1529.83 L 989.083 1529.95 C 989.027 1519.67 989.029 1509.38 989.087 1499.1 z" fill="rgb(255,255,255)" transform="translate(0,0)"></path>
<path d="M 989.012 986.152 L 1054.99 986.679 L 1055 1017.11 L 988.976 1017.06 C 988.931 1006.76 988.943 996.454 989.012 986.152 z" fill="rgb(255,255,255)" transform="translate(0,0)"></path>
<path d="M 1222.34 1423.67 C 1225.57 1424.64 1238.55 1440.77 1242.12 1444.82 C 1227.08 1458.04 1207.01 1475.75 1193.05 1489.35 C 1190.03 1487.77 1175.29 1469.78 1172.15 1466.01 C 1188.75 1452.18 1206.03 1437.82 1222.34 1423.67 z" fill="rgb(255,255,255)" transform="translate(0,0)"></path>
<path d="M 1007.71 1543.96 L 1039.21 1543.91 C 1033.12 1574.7 1028.6 1616.29 1024.53 1647.65 L 1023.31 1648.4 C 1022.05 1644.47 1021.46 1637.87 1020.9 1633.66 C 1016.91 1603.72 1011.4 1573.94 1007.71 1543.96 z" fill="rgb(255,255,255)" transform="translate(0,0)"></path>
<path d="M 1239.44 1465.55 C 1253 1489.38 1274.45 1515.94 1290.67 1538.43 C 1299.39 1549.58 1290.78 1542.98 1285.94 1538.64 C 1282.53 1536.82 1271.75 1528.44 1268.02 1525.84 C 1250.75 1513.86 1233.34 1498.78 1215.77 1487.43 L 1239.44 1465.55 z" fill="rgb(255,255,255)" transform="translate(0,0)"></path>
<path d="M 748.704 983.758 C 753.419 985.818 773.506 1002.25 779.272 1006.67 C 794.684 1018.5 810.714 1028.81 826.302 1039.96 C 822.629 1043.88 818.76 1047.62 814.711 1051.15 C 810.648 1054.76 807.38 1057.83 803.184 1061.36 C 788.266 1042.2 775.043 1020.93 760.684 1001.28 C 756.686 995.805 752.071 989.545 748.704 983.758 z" fill="rgb(255,255,255)" transform="translate(0,0)"></path>
<path d="M 808.566 1467.12 C 815.599 1473.73 822.693 1479.68 829.916 1486.03 C 817.58 1496.02 803.994 1505.68 791.344 1515.37 C 780.675 1523.54 769.502 1532.82 758.559 1540.46 C 757.994 1540.89 757.43 1541.32 756.866 1541.75 C 756.557 1541.93 755.268 1542.86 754.797 1542.64 C 754.632 1542.56 754.414 1542.18 754.468 1542.09 C 764.79 1524.96 798.614 1480 808.566 1467.12 z" fill="rgb(255,255,255)" transform="translate(0,0)"></path>
<path d="M 1023.33 874.726 C 1024.79 880.444 1025.16 884.184 1025.89 890.004 L 1027.88 905.504 C 1030.68 927.814 1034.5 950.076 1037.46 972.373 C 1033.39 972.507 1029.32 972.557 1025.25 972.523 C 1019.74 972.55 1014.22 972.513 1008.71 972.413 C 1012.64 945.421 1017.14 918.512 1020.89 891.496 C 1021.69 885.763 1022.05 880.473 1023.33 874.726 z" fill="rgb(255,255,255)" transform="translate(0,0)"></path>
<path d="M 1290.72 988.752 L 1292.16 991.204 C 1287.57 997.238 1283.07 1004.67 1278.67 1011 C 1267 1027.78 1254.52 1044.29 1242.83 1061.01 C 1236.53 1056.18 1227.48 1047.56 1221.32 1041.95 C 1244.41 1024.48 1267.81 1006.49 1290.72 988.752 z" fill="rgb(255,255,255)" transform="translate(0,0)"></path>
<path d="M 1290.72 988.752 C 1297.53 983.644 1296.62 986.177 1292.16 991.204 L 1290.72 988.752 z" fill="rgb(236,198,171)" transform="translate(0,0)"></path>
<path d="M 1412.08 1262.66 C 1412.94 1262.74 1416.69 1262.82 1417.26 1263.68 C 1416.75 1264.98 1413.01 1265.04 1411.98 1265.15 L 1412.08 1262.66 z" fill="rgb(236,198,171)" transform="translate(0,0)"></path>
<path d="M 1023.31 1648.4 L 1024.53 1647.65 C 1024.55 1648.65 1024.78 1649.91 1024 1650.68 C 1023.13 1650.67 1023.32 1648.62 1023.31 1648.4 z" fill="rgb(236,198,171)" transform="translate(0,0)"></path>
<path d="M 972.005 208.56 L 973.711 208.473 C 1019.39 206.218 1066.85 208.51 1112.5 210.766 C 1259.37 218.025 1409.29 244.397 1547.18 296.04 C 1589.31 311.82 1633.41 331.862 1671.06 356.914 C 1680.85 363.424 1694.69 376.259 1703.93 384.61 C 1673.94 452.133 1644.47 519.885 1615.52 587.86 C 1598.57 566.926 1557.3 544.719 1531.73 533.799 C 1390.69 473.572 1227.38 449.606 1074.97 443.438 C 1046.65 442.163 1005.41 442.268 976.565 443.093 C 822.907 447.484 657.929 471.81 516.403 533.789 C 487.83 546.302 454.211 564.911 433.081 587.083 C 402.901 520.618 374.108 451.533 344.805 384.553 C 345.358 383.924 345.921 383.303 346.494 382.69 C 374.205 353.115 424.179 328.032 461.487 312.166 C 621.126 244.276 799.408 213.755 972.005 208.56 z" fill="rgb(178,77,25)" transform="translate(0,0)"></path>
<path d="M 386.951 511.89 C 395.948 519.27 421.665 602.882 435.96 613.561 C 456.872 629.182 525.908 620.287 549.352 618.168 C 579.235 615.605 609.09 612.72 638.912 609.512 C 629.95 617.096 612.577 626.136 602.048 632.21 C 571.76 649.682 540.738 665.649 510.11 682.619 C 410.146 737.787 314.925 801.487 239.224 888.042 C 217.999 912.309 202.087 936.103 182.783 961.456 C 184.794 948.86 186.958 936.288 189.275 923.745 C 204.531 846.609 231.887 779.79 270.007 711.097 C 209.824 722.259 150.391 736.717 93.7646 760.339 C 73.8843 768.632 53.6896 779.023 34.304 788.62 C 128.488 670.494 254.406 581.739 386.951 511.89 z" fill="rgb(178,77,25)" transform="translate(0,0)"></path>
<path d="M 1660.97 512.53 C 1796.26 578.723 1916.05 672.729 2012.51 788.401 C 1923.66 741.55 1873.57 730.997 1776.92 710.127 C 1819.47 785.304 1838.14 837.71 1857.51 920.565 C 1859.56 933.369 1863.36 949.379 1866.05 962.319 C 1852.03 942.63 1838.57 923.857 1823.07 905.217 C 1744.88 811.171 1648.03 743.172 1541.52 684.482 L 1463.63 642.093 C 1447.04 633.071 1423.61 621.357 1409.49 609.798 C 1451.29 614.174 1570.62 629.485 1603.26 618.395 C 1607.14 617.076 1611.91 614.992 1614.64 611.792 C 1624.04 600.759 1651.17 531.811 1660.97 512.53 z" fill="rgb(178,77,25)" transform="translate(0,0)"></path>
<path d="M 1450.1 513.47 C 1460.31 516.174 1476 522.433 1486.05 526.193 C 1519.2 538.596 1553.3 552.818 1583.02 572.224 C 1589.24 576.598 1608.9 588.612 1609.01 597.267 C 1609.22 612.909 1577.13 612.725 1567.96 612.82 C 1514.83 609.581 1461.75 605.607 1408.73 600.897 L 1432.49 549.266 C 1437.62 538.159 1443.88 523.713 1450.1 513.47 z" fill="rgb(178,77,25)" transform="translate(0,0)"></path>
<path d="M 597.42 512.993 C 598.004 513.242 598.589 513.49 599.174 513.739 C 609.546 538.316 627.533 577.413 637.353 600.566 C 587.604 605.575 528.769 610.224 479.189 612.342 C 467.134 612.269 445.259 612.836 439.093 600.39 C 438.165 590.953 453.089 580.965 460.162 576.125 C 502.119 547.413 549.749 529.667 597.42 512.993 z" fill="rgb(178,77,25)" transform="translate(0,0)"></path>
<path d="M 1341.94 777.775 C 1359.69 757.465 1378.57 743.603 1406.41 741.74 C 1432.16 739.902 1457.57 748.499 1476.92 765.594 C 1495.59 782.199 1506.83 805.6 1508.11 830.557 C 1509.95 862.846 1499.42 885.503 1475.89 907.219 C 1470.2 899.772 1463.98 891.212 1457.76 884.337 C 1458.81 881.878 1461.99 878.177 1463.66 875.773 C 1472.04 864.324 1475.38 854.805 1476.29 840.771 C 1478.6 804.982 1450.82 775.261 1415.08 774.709 C 1394.21 774.386 1380.85 782.204 1365.96 796.261 C 1357.9 790.169 1349.89 784.007 1341.94 777.775 z" fill="rgb(178,77,25)" transform="translate(0,0)"></path>
<path d="M 571.726 906.484 C 550.058 891.306 539.903 866.677 538.713 840.964 C 536.218 787.063 575.609 743.325 630.017 742.435 C 663.695 741.884 682.411 754.473 706.02 777.056 C 697.455 782.302 687.771 789.612 679.487 795.547 C 671.603 787.881 663.956 782.389 653.484 778.663 C 637.537 772.986 619.981 773.935 604.739 781.299 C 589.925 788.564 578.609 801.424 573.287 817.041 C 567.697 833.828 569.004 853.444 578.288 868.767 C 580.573 872.538 586.613 881.546 588.061 885.042 C 582.905 891.849 577.074 899.976 571.726 906.484 z" fill="rgb(178,77,25)" transform="translate(0,0)"></path>
<metadata><recraft-signature>{"signed_by": "recraft", "signature_b64": "BOdWwPAshxFjOE8Ncp5MfNgd1s+8KSvgAp6O8VNcvSdVmjAiGf63yHio/FKYs0PDocwcVkXv/QV1kPhydOwqCw==", "signing_algo": "Ed25519", "generation_timestamp": 1784328632, "identifier": "03ee5c66-cc6b-4d00-9e13-d1d0285043a9"}</recraft-signature></metadata></svg>